<svg width="24" height="24" viewBox="0 0 24 24" fill="none" xmlns="http://www.w3.org/2000/svg">
<path d="M12 22.9286C18.0357 22.9286 22.9286 18.0357 22.9286 12C22.9286 5.96431 18.0357 1.07143 12 1.07143C5.96431 1.07143 1.07143 5.96431 1.07143 12C1.07143 18.0357 5.96431 22.9286 12 22.9286Z" fill="#FFBF00"/>
<path fill-rule="evenodd" clip-rule="evenodd" d="M2.14286 12C2.14286 6.55605 6.55605 2.14286 12 2.14286C17.4439 2.14286 21.8571 6.55605 21.8571 12C21.8571 17.4439 17.4439 21.8571 12 21.8571C6.55605 21.8571 2.14286 17.4439 2.14286 12ZM12 0C5.37259 0 0 5.37259 0 12C0 18.6274 5.37259 24 12 24C18.6274 24 24 18.6274 24 12C24 5.37259 18.6274 0 12 0ZM12 8.57143C11.0532 8.57143 10.2857 7.80391 10.2857 6.85714C10.2857 5.91038 11.0532 5.14286 12 5.14286C12.9468 5.14286 13.7143 5.91038 13.7143 6.85714C13.7143 7.80391 12.9468 8.57143 12 8.57143ZM9 11.1429C9 10.4328 9.57564 9.85714 10.2857 9.85714H12C12.7101 9.85714 13.2857 10.4328 13.2857 11.1429V15.8571H14.5714C15.2815 15.8571 15.8571 16.4328 15.8571 17.1429C15.8571 17.8529 15.2815 18.4286 14.5714 18.4286H9.42857C8.7185 18.4286 8.14286 17.8529 8.14286 17.1429C8.14286 16.4328 8.7185 15.8571 9.42857 15.8571H10.7143V12.4286H10.2857C9.57564 12.4286 9 11.8529 9 11.1429Z" fill="#50C878"/>
</svg>
