<svg width="89" height="40" viewBox="0 0 89 40" fill="none" xmlns="http://www.w3.org/2000/svg">
<g filter="url(#filter0_i_98_306)">
<rect width="88.8889" height="40" rx="20" fill="url(#paint0_linear_98_306)"/>
</g>
<path d="M50.5076 11.5049C50.724 11.1947 51.2042 11.2794 51.3015 11.6448L51.6456 12.9366C51.6851 13.0851 51.7987 13.2027 51.9458 13.2474L53.2248 13.6362C53.5866 13.7461 53.6545 14.229 53.337 14.4345L52.2148 15.1609C52.0858 15.2444 52.009 15.3887 52.012 15.5425L52.0375 16.879C52.0447 17.2571 51.6064 17.4709 51.3129 17.2324L50.2753 16.3896C50.156 16.2927 49.995 16.2643 49.8497 16.3146L48.5865 16.7519C48.2291 16.8756 47.8904 16.5248 48.0264 16.172L48.5073 14.9247C48.5626 14.7813 48.5399 14.6194 48.4472 14.4968L47.6409 13.4305C47.4129 13.1288 47.6418 12.6983 48.0194 12.7186L49.3542 12.7906C49.5077 12.7989 49.6546 12.7272 49.7426 12.6011L50.5076 11.5049Z" fill="url(#paint1_linear_98_306)"/>
<path d="M40.4223 5.50638C40.4751 5.43079 40.5921 5.45142 40.6158 5.54049L40.6997 5.85532C40.7093 5.89153 40.737 5.92018 40.7729 5.93108L41.0846 6.02583C41.1728 6.05263 41.1893 6.17032 41.1119 6.22041L40.8384 6.39744C40.807 6.4178 40.7883 6.45298 40.789 6.49045L40.7952 6.81619C40.797 6.90835 40.6901 6.96045 40.6186 6.90234L40.3657 6.69692C40.3366 6.6733 40.2974 6.66638 40.262 6.67864L39.9541 6.78521C39.867 6.81536 39.7844 6.72988 39.8176 6.64388L39.9348 6.33989C39.9483 6.30492 39.9427 6.26548 39.9201 6.23558L39.7236 5.9757C39.6681 5.90218 39.7238 5.79725 39.8159 5.80221L40.1412 5.81975C40.1786 5.82176 40.2144 5.8043 40.2359 5.77357L40.4223 5.50638Z" fill="url(#paint2_linear_98_306)"/>
<path d="M63.3105 14.7334C63.3651 14.5108 63.6551 14.4537 63.79 14.639L64.2668 15.294C64.3216 15.3694 64.4115 15.411 64.5044 15.4042L65.3124 15.3444C65.541 15.3275 65.6849 15.5856 65.5504 15.7712L65.0747 16.4271C65.02 16.5025 65.0082 16.6009 65.0434 16.6871L65.3499 17.4371C65.4367 17.6493 65.2356 17.8659 65.0176 17.7953L64.2468 17.5456C64.1582 17.5169 64.061 17.536 63.9898 17.5962L63.3713 18.1195C63.1963 18.2675 62.9281 18.1433 62.9279 17.9141L62.9272 17.1039C62.9271 17.0107 62.8789 16.9241 62.7996 16.8751L62.1108 16.4485C61.916 16.3278 61.9513 16.0344 62.1692 15.9634L62.9395 15.7123C63.0281 15.6834 63.0955 15.6108 63.1177 15.5203L63.3105 14.7334Z" fill="url(#paint3_linear_98_306)"/>
<path d="M72.4488 9.51265C72.4793 9.38797 72.6417 9.35599 72.7173 9.45978L72.9843 9.82665C73.015 9.86885 73.0654 9.89217 73.1174 9.88832L73.57 9.85486C73.698 9.84539 73.7786 9.98996 73.7032 10.0939L73.4368 10.4612C73.4062 10.5035 73.3996 10.5586 73.4193 10.6069L73.591 11.0269C73.6396 11.1458 73.527 11.2671 73.4048 11.2275L72.9731 11.0877C72.9235 11.0716 72.8691 11.0823 72.8292 11.116L72.4828 11.4091C72.3848 11.492 72.2346 11.4224 72.2345 11.2941L72.2341 10.8403C72.234 10.7881 72.207 10.7396 72.1626 10.7122L71.7768 10.4732C71.6677 10.4056 71.6875 10.2413 71.8095 10.2015L72.241 10.0609C72.2906 10.0447 72.3283 10.0041 72.3408 9.95338L72.4488 9.51265Z" fill="url(#paint4_linear_98_306)"/>
<path d="M58.8526 4.38314C59.0002 4.31989 59.1543 4.45819 59.1074 4.6118L58.9415 5.15474C58.9224 5.21719 58.937 5.28507 58.98 5.3342L59.3539 5.76143C59.4597 5.88229 59.3758 6.07163 59.2152 6.07446L58.6475 6.08448C58.5822 6.08564 58.5222 6.12045 58.4887 6.17653L58.198 6.66413C58.1157 6.80208 57.9097 6.78079 57.8574 6.62894L57.6725 6.09219C57.6512 6.03045 57.5995 5.98409 57.5358 5.96962L56.9822 5.84374C56.8256 5.80814 56.7822 5.60565 56.9105 5.50896L57.3638 5.16721C57.4159 5.1279 57.4441 5.06444 57.4382 4.99941L57.3868 4.43401C57.3723 4.27406 57.5514 4.1702 57.683 4.2623L58.1481 4.58784C58.2016 4.62528 58.2707 4.63241 58.3307 4.6067L58.8526 4.38314Z" fill="url(#paint5_linear_98_306)"/>
<defs>
<filter id="filter0_i_98_306" x="0" y="0" width="88.8889" height="46" filterUnits="userSpaceOnUse" color-interpolation-filters="sRGB">
<feFlood flood-opacity="0" result="BackgroundImageFix"/>
<feBlend mode="normal" in="SourceGraphic" in2="BackgroundImageFix" result="shape"/>
<feColorMatrix in="SourceAlpha" type="matrix" values="0 0 0 0 0 0 0 0 0 0 0 0 0 0 0 0 0 0 127 0" result="hardAlpha"/>
<feMorphology radius="3" operator="erode" in="SourceAlpha" result="effect1_innerShadow_98_306"/>
<feOffset dy="6"/>
<feGaussianBlur stdDeviation="4"/>
<feComposite in2="hardAlpha" operator="arithmetic" k2="-1" k3="1"/>
<feColorMatrix type="matrix" values="0 0 0 0 0 0 0 0 0 0 0 0 0 0 0 0 0 0 0.25 0"/>
<feBlend mode="normal" in2="shape" result="effect1_innerShadow_98_306"/>
</filter>
<linearGradient id="paint0_linear_98_306" x1="45.5556" y1="1.55556" x2="44.4444" y2="40" gradientUnits="userSpaceOnUse">
<stop stop-color="#2B4485"/>
<stop offset="1" stop-color="#AFCAFF"/>
</linearGradient>
<linearGradient id="paint1_linear_98_306" x1="51.0552" y1="10.7201" x2="49.7437" y2="18.1609" gradientUnits="userSpaceOnUse">
<stop stop-color="#A8C3BC"/>
<stop offset="1" stop-color="#F8F8FF"/>
</linearGradient>
<linearGradient id="paint2_linear_98_306" x1="40.5558" y1="5.3151" x2="40.2361" y2="7.12864" gradientUnits="userSpaceOnUse">
<stop stop-color="#A8C3BC"/>
<stop offset="1" stop-color="#F8F8FF"/>
</linearGradient>
<linearGradient id="paint3_linear_98_306" x1="63.4486" y1="14.17" x2="64.3334" y2="18.6631" gradientUnits="userSpaceOnUse">
<stop stop-color="#A8C3BC"/>
<stop offset="1" stop-color="#F8F8FF"/>
</linearGradient>
<linearGradient id="paint4_linear_98_306" x1="72.5261" y1="9.19713" x2="73.0216" y2="11.7136" gradientUnits="userSpaceOnUse">
<stop stop-color="#A8C3BC"/>
<stop offset="1" stop-color="#F8F8FF"/>
</linearGradient>
<linearGradient id="paint5_linear_98_306" x1="59.2262" y1="4.22309" x2="57.0832" y2="6.6115" gradientUnits="userSpaceOnUse">
<stop stop-color="#A8C3BC"/>
<stop offset="1" stop-color="#F8F8FF"/>
</linearGradient>
</defs>
</svg>
