<svg id="Layer_1" data-name="Layer 1" xmlns="http://www.w3.org/2000/svg" xmlns:xlink="http://www.w3.org/1999/xlink" viewBox="0 0 30 30"><defs><style>.cls-1{fill:url(#linear-gradient);}.cls-2{fill:none;}.cls-3{clip-path:url(#clip-path);}.cls-4{fill:url(#linear-gradient-2);}.cls-5{fill:url(#linear-gradient-3);}.cls-6{fill:#ffbf00;}.cls-7{mask:url(#mask);}.cls-8{fill:url(#linear-gradient-5);}.cls-9{fill:url(#linear-gradient-6);}</style><linearGradient id="linear-gradient" x1="15" y1="32" x2="15" y2="2" gradientTransform="matrix(1, 0, 0, -1, 0, 32)" gradientUnits="userSpaceOnUse"><stop offset="0" stop-color="#ffc123"/><stop offset="1" stop-color="#f8832e"/></linearGradient><clipPath id="clip-path"><rect class="cls-2" width="30" height="30"/></clipPath><linearGradient id="linear-gradient-2" x1="15" y1="32" x2="15" y2="2" gradientTransform="matrix(1, 0, 0, -1, 0, 32)" gradientUnits="userSpaceOnUse"><stop offset="0" stop-color="gold"/><stop offset="1" stop-color="#ffbf00"/></linearGradient><linearGradient id="linear-gradient-3" x1="15" y1="29.43" x2="15" y2="4.57" gradientTransform="matrix(1, 0, 0, -1, 0, 32)" gradientUnits="userSpaceOnUse"><stop offset="0" stop-color="#ffe4b5"/><stop offset="1" stop-color="#ffbf00"/></linearGradient><mask id="mask" x="-15.53" y="0" width="57.75" height="42.44" maskUnits="userSpaceOnUse"><g id="mask0_100_335" data-name="mask0 100 335"><circle class="cls-1" cx="15" cy="15" r="15"/></g></mask><linearGradient id="linear-gradient-5" x1="14.89" y1="24.71" x2="14.89" y2="-10.44" gradientTransform="matrix(1, 0, 0, -1, 0, 32)" gradientUnits="userSpaceOnUse"><stop offset="0" stop-color="#ffbf00" stop-opacity="0.6"/><stop offset="1" stop-color="#ffbf00" stop-opacity="0"/></linearGradient><linearGradient id="linear-gradient-6" x1="9.88" y1="28.3" x2="17.95" y2="-5.92" gradientTransform="matrix(1, 0, 0, -1, 0, 32)" gradientUnits="userSpaceOnUse"><stop offset="0" stop-color="#ffbd3e" stop-opacity="0.49"/><stop offset="1" stop-color="#f8f8ff" stop-opacity="0.1"/></linearGradient></defs><g class="cls-3"><circle class="cls-4" cx="15" cy="15" r="15"/><circle class="cls-5" cx="15" cy="15" r="12.43"/><circle class="cls-6" cx="15" cy="15" r="15"/><circle class="cls-5" cx="15" cy="15" r="12.43"/><g class="cls-7"><path class="cls-8" d="M18.21,16.3c8.06-9.43,16.08-9.65,19.08-8.57l4.92,4.71L37.93,32.8,6.86,42.44-10.5,34.51l-1.93-18.86C-5.57,19.8,10.16,25.73,18.21,16.3Z"/><path class="cls-9" d="M13.71,15C-3.94,4.29-9.14,7.54-11.82,9.27L-15.53,15l8.85,18.83,32.45,2.25,15.07-11.7L38.39,5.57C32.67,11.18,25,21.81,13.71,15Z"/></g></g></svg>