<svg width="172" height="48" viewBox="0 0 172 48" fill="none" xmlns="http://www.w3.org/2000/svg">
<g clip-path="url(#clip0_192_518)">
<g filter="url(#filter0_d_192_518)">
<rect width="172" height="40" rx="8" fill="#183F25"/>
<path d="M18.8169 19H17.9363C17.8842 18.7467 17.793 18.5241 17.6628 18.3324C17.535 18.1406 17.3787 17.9796 17.1941 17.8494C17.0118 17.7169 16.8094 17.6174 16.5868 17.5511C16.3643 17.4848 16.1323 17.4517 15.8908 17.4517C15.4505 17.4517 15.0516 17.563 14.6941 17.7855C14.339 18.008 14.056 18.3359 13.8453 18.7692C13.637 19.2024 13.5328 19.7339 13.5328 20.3636C13.5328 20.9934 13.637 21.5249 13.8453 21.9581C14.056 22.3913 14.339 22.7192 14.6941 22.9418C15.0516 23.1643 15.4505 23.2756 15.8908 23.2756C16.1323 23.2756 16.3643 23.2424 16.5868 23.1761C16.8094 23.1098 17.0118 23.0116 17.1941 22.8814C17.3787 22.7488 17.535 22.5866 17.6628 22.3949C17.793 22.2008 17.8842 21.9782 17.9363 21.7273H18.8169C18.7507 22.099 18.6299 22.4316 18.4547 22.7251C18.2795 23.0187 18.0617 23.2685 17.8013 23.4744C17.5409 23.678 17.2485 23.8331 16.9242 23.9396C16.6022 24.0462 16.2578 24.0994 15.8908 24.0994C15.2705 24.0994 14.7189 23.9479 14.236 23.6449C13.753 23.3419 13.373 22.911 13.0961 22.3523C12.8191 21.7936 12.6806 21.1307 12.6806 20.3636C12.6806 19.5966 12.8191 18.9337 13.0961 18.375C13.373 17.8163 13.753 17.3854 14.236 17.0824C14.7189 16.7794 15.2705 16.6278 15.8908 16.6278C16.2578 16.6278 16.6022 16.6811 16.9242 16.7876C17.2485 16.8942 17.5409 17.0504 17.8013 17.2564C18.0617 17.46 18.2795 17.7086 18.4547 18.0021C18.6299 18.2933 18.7507 18.6259 18.8169 19ZM20.9645 16.7273V24H20.1264V16.7273H20.9645ZM22.4995 24V18.5455H23.3375V24H22.4995ZM22.9256 17.6364C22.7623 17.6364 22.6214 17.5807 22.503 17.4695C22.387 17.3582 22.329 17.2244 22.329 17.0682C22.329 16.9119 22.387 16.7782 22.503 16.6669C22.6214 16.5556 22.7623 16.5 22.9256 16.5C23.089 16.5 23.2286 16.5556 23.3446 16.6669C23.463 16.7782 23.5222 16.9119 23.5222 17.0682C23.5222 17.2244 23.463 17.3582 23.3446 17.4695C23.2286 17.5807 23.089 17.6364 22.9256 17.6364ZM27.0884 24.1136C26.5771 24.1136 26.1367 23.9929 25.7674 23.7514C25.3981 23.5099 25.114 23.1773 24.9151 22.7536C24.7163 22.3298 24.6168 21.8456 24.6168 21.3011C24.6168 20.7472 24.7186 20.2583 24.9222 19.8345C25.1282 19.4084 25.4147 19.0758 25.7816 18.8366C26.1509 18.5952 26.5818 18.4744 27.0742 18.4744C27.4577 18.4744 27.8034 18.5455 28.1112 18.6875C28.4189 18.8295 28.671 19.0284 28.8675 19.2841C29.064 19.5398 29.186 19.8381 29.2333 20.179H28.3952C28.3313 19.9304 28.1893 19.7102 27.9691 19.5185C27.7513 19.3243 27.4577 19.2273 27.0884 19.2273C26.7617 19.2273 26.4753 19.3125 26.229 19.483C25.9852 19.651 25.7946 19.889 25.6573 20.1967C25.5224 20.5021 25.4549 20.8608 25.4549 21.2727C25.4549 21.6941 25.5212 22.0611 25.6538 22.3736C25.7887 22.6861 25.9781 22.9287 26.2219 23.1016C26.4682 23.2744 26.757 23.3608 27.0884 23.3608C27.3062 23.3608 27.5039 23.3229 27.6815 23.2472C27.859 23.1714 28.0094 23.0625 28.1325 22.9205C28.2556 22.7784 28.3432 22.608 28.3952 22.4091H29.2333C29.186 22.7311 29.0688 23.0211 28.8817 23.2791C28.6971 23.5348 28.4521 23.7384 28.1467 23.8899C27.8436 24.0391 27.4909 24.1136 27.0884 24.1136ZM31.2397 22.0114L31.2255 20.9744H31.396L33.7823 18.5455H34.8192L32.2766 21.1165H32.2056L31.2397 22.0114ZM30.4585 24V16.7273H31.2965V24H30.4585ZM33.9244 24L31.7937 21.3011L32.3903 20.7188L34.9897 24H33.9244ZM41.0826 18.5455V19.2557H38.2559V18.5455H41.0826ZM39.0797 17.2386H39.9178V22.4375C39.9178 22.6742 39.9521 22.8518 40.0208 22.9702C40.0918 23.0862 40.1818 23.1643 40.2907 23.2045C40.4019 23.2424 40.5191 23.2614 40.6422 23.2614C40.7346 23.2614 40.8103 23.2566 40.8695 23.2472C40.9287 23.2353 40.976 23.2259 41.0115 23.2188L41.182 23.9716C41.1252 23.9929 41.0459 24.0142 40.9441 24.0355C40.8423 24.0592 40.7132 24.071 40.557 24.071C40.3203 24.071 40.0882 24.0201 39.861 23.9183C39.6361 23.8165 39.449 23.6615 39.2999 23.4531C39.1531 23.2448 39.0797 22.982 39.0797 22.6648V17.2386ZM43.2985 20.7188V24H42.4604V16.7273H43.2985V19.3977H43.3695C43.4973 19.116 43.6891 18.8923 43.9448 18.7266C44.2028 18.5585 44.5461 18.4744 44.9746 18.4744C45.3463 18.4744 45.6718 18.549 45.9512 18.6982C46.2305 18.8449 46.4471 19.071 46.601 19.3764C46.7573 19.6795 46.8354 20.0653 46.8354 20.5341V24H45.9973V20.5909C45.9973 20.1577 45.8849 19.8227 45.66 19.5859C45.4374 19.3468 45.1285 19.2273 44.7331 19.2273C44.4585 19.2273 44.2123 19.2853 43.9945 19.4013C43.7791 19.5173 43.6086 19.6866 43.4831 19.9091C43.36 20.1316 43.2985 20.4015 43.2985 20.7188ZM50.6555 24.1136C50.13 24.1136 49.6766 23.9976 49.2955 23.7656C48.9167 23.5312 48.6243 23.2045 48.4183 22.7855C48.2147 22.3641 48.1129 21.8741 48.1129 21.3153C48.1129 20.7566 48.2147 20.2642 48.4183 19.8381C48.6243 19.4096 48.9107 19.0758 49.2777 18.8366C49.647 18.5952 50.0779 18.4744 50.5703 18.4744C50.8544 18.4744 51.1349 18.5218 51.4119 18.6165C51.6889 18.7112 51.9411 18.8651 52.1683 19.0781C52.3956 19.2888 52.5767 19.5682 52.7116 19.9162C52.8466 20.2642 52.9141 20.6927 52.9141 21.2017V21.5568H48.7095V20.8324H52.0618C52.0618 20.5246 52.0002 20.25 51.8771 20.0085C51.7564 19.767 51.5836 19.5765 51.3587 19.4368C51.1361 19.2971 50.8733 19.2273 50.5703 19.2273C50.2365 19.2273 49.9477 19.3101 49.7038 19.4759C49.4624 19.6392 49.2765 19.8523 49.1463 20.1151C49.0161 20.3778 48.951 20.6596 48.951 20.9602V21.4432C48.951 21.8551 49.022 22.2043 49.1641 22.4908C49.3085 22.7749 49.5085 22.9915 49.7642 23.1406C50.0199 23.2874 50.317 23.3608 50.6555 23.3608C50.8757 23.3608 51.0746 23.33 51.2521 23.2685C51.4321 23.2045 51.5871 23.1098 51.7173 22.9844C51.8475 22.8565 51.9482 22.6979 52.0192 22.5085L52.8288 22.7358C52.7436 23.0104 52.6004 23.2519 52.3991 23.4602C52.1979 23.6662 51.9493 23.8272 51.6534 23.9432C51.3575 24.0568 51.0249 24.1136 50.6555 24.1136ZM57.1151 24V16.7273H57.9531V19.4119H58.0241C58.0857 19.3172 58.1709 19.1965 58.2798 19.0497C58.3911 18.9006 58.5497 18.768 58.7557 18.652C58.964 18.5336 59.2457 18.4744 59.6009 18.4744C60.0601 18.4744 60.465 18.5893 60.8153 18.8189C61.1657 19.0485 61.4392 19.3741 61.6357 19.7955C61.8321 20.2169 61.9304 20.714 61.9304 21.2869C61.9304 21.8646 61.8321 22.3653 61.6357 22.7891C61.4392 23.2105 61.1669 23.5372 60.8189 23.7692C60.4709 23.9988 60.0696 24.1136 59.6151 24.1136C59.2647 24.1136 58.9841 24.0556 58.7734 23.9396C58.5627 23.8213 58.4006 23.6875 58.2869 23.5384C58.1733 23.3868 58.0857 23.2614 58.0241 23.1619H57.9247V24H57.1151ZM57.9389 21.2727C57.9389 21.6847 57.9993 22.0481 58.12 22.3629C58.2408 22.6754 58.4171 22.9205 58.6491 23.098C58.8812 23.2732 59.1652 23.3608 59.5014 23.3608C59.8518 23.3608 60.1442 23.2685 60.3786 23.0838C60.6153 22.8968 60.7929 22.6458 60.9112 22.331C61.032 22.0137 61.0923 21.661 61.0923 21.2727C61.0923 20.8892 61.0331 20.5436 60.9148 20.2358C60.7988 19.9257 60.6224 19.6806 60.3857 19.5007C60.1513 19.3184 59.8565 19.2273 59.5014 19.2273C59.1605 19.2273 58.8741 19.3137 58.642 19.4865C58.41 19.657 58.2348 19.8961 58.1165 20.2038C57.9981 20.5092 57.9389 20.8655 57.9389 21.2727ZM66.6499 21.7699V18.5455H67.4879V24H66.6499V23.0767H66.593C66.4652 23.3537 66.2663 23.5893 65.9964 23.7834C65.7266 23.9751 65.3857 24.071 64.9737 24.071C64.6328 24.071 64.3298 23.9964 64.0646 23.8473C63.7995 23.6958 63.5911 23.4685 63.4396 23.1655C63.2881 22.8601 63.2124 22.4754 63.2124 22.0114V18.5455H64.0504V21.9545C64.0504 22.3523 64.1617 22.6695 64.3842 22.9062C64.6091 23.143 64.8956 23.2614 65.2436 23.2614C65.4519 23.2614 65.6638 23.2081 65.8793 23.1016C66.0971 22.995 66.2794 22.8317 66.4261 22.6115C66.5753 22.3913 66.6499 22.1108 66.6499 21.7699ZM71.3951 18.5455V19.2557H68.5684V18.5455H71.3951ZM69.3922 17.2386H70.2303V22.4375C70.2303 22.6742 70.2646 22.8518 70.3333 22.9702C70.4043 23.0862 70.4943 23.1643 70.6032 23.2045C70.7144 23.2424 70.8316 23.2614 70.9547 23.2614C71.0471 23.2614 71.1228 23.2566 71.182 23.2472C71.2412 23.2353 71.2885 23.2259 71.324 23.2188L71.4945 23.9716C71.4377 23.9929 71.3584 24.0142 71.2566 24.0355C71.1548 24.0592 71.0257 24.071 70.8695 24.071C70.6328 24.071 70.4007 24.0201 70.1735 23.9183C69.9486 23.8165 69.7615 23.6615 69.6124 23.4531C69.4656 23.2448 69.3922 22.982 69.3922 22.6648V17.2386ZM75.0279 18.5455V19.2557H72.2012V18.5455H75.0279ZM73.025 17.2386H73.8631V22.4375C73.8631 22.6742 73.8974 22.8518 73.9661 22.9702C74.0371 23.0862 74.1271 23.1643 74.236 23.2045C74.3472 23.2424 74.4644 23.2614 74.5875 23.2614C74.6799 23.2614 74.7556 23.2566 74.8148 23.2472C74.874 23.2353 74.9213 23.2259 74.9569 23.2188L75.1273 23.9716C75.0705 23.9929 74.9912 24.0142 74.8894 24.0355C74.7876 24.0592 74.6586 24.071 74.5023 24.071C74.2656 24.071 74.0336 24.0201 73.8063 23.9183C73.5814 23.8165 73.3944 23.6615 73.2452 23.4531C73.0984 23.2448 73.025 22.982 73.025 22.6648V17.2386ZM78.4458 24.1136C77.9534 24.1136 77.5214 23.9964 77.1497 23.7621C76.7804 23.5277 76.4915 23.1998 76.2832 22.7784C76.0772 22.357 75.9743 21.8646 75.9743 21.3011C75.9743 20.733 76.0772 20.237 76.2832 19.8132C76.4915 19.3894 76.7804 19.0604 77.1497 18.826C77.5214 18.5916 77.9534 18.4744 78.4458 18.4744C78.9383 18.4744 79.3691 18.5916 79.7385 18.826C80.1101 19.0604 80.399 19.3894 80.6049 19.8132C80.8133 20.237 80.9174 20.733 80.9174 21.3011C80.9174 21.8646 80.8133 22.357 80.6049 22.7784C80.399 23.1998 80.1101 23.5277 79.7385 23.7621C79.3691 23.9964 78.9383 24.1136 78.4458 24.1136ZM78.4458 23.3608C78.8199 23.3608 79.1277 23.2649 79.3691 23.0732C79.6106 22.8814 79.7894 22.6293 79.9054 22.3168C80.0214 22.0043 80.0794 21.6657 80.0794 21.3011C80.0794 20.9366 80.0214 20.5968 79.9054 20.282C79.7894 19.9671 79.6106 19.7126 79.3691 19.5185C79.1277 19.3243 78.8199 19.2273 78.4458 19.2273C78.0718 19.2273 77.764 19.3243 77.5225 19.5185C77.2811 19.7126 77.1023 19.9671 76.9863 20.282C76.8703 20.5968 76.8123 20.9366 76.8123 21.3011C76.8123 21.6657 76.8703 22.0043 76.9863 22.3168C77.1023 22.6293 77.2811 22.8814 77.5225 23.0732C77.764 23.2649 78.0718 23.3608 78.4458 23.3608ZM83.0348 20.7188V24H82.1967V18.5455H83.0064V19.3977H83.0774C83.2053 19.1207 83.3994 18.8982 83.6598 18.7301C83.9202 18.5597 84.2564 18.4744 84.6683 18.4744C85.0376 18.4744 85.3608 18.5502 85.6378 18.7017C85.9148 18.8509 86.1302 19.0781 86.2841 19.3835C86.438 19.6866 86.5149 20.0701 86.5149 20.5341V24H85.6768V20.5909C85.6768 20.1624 85.5656 19.8286 85.343 19.5895C85.1205 19.348 84.8151 19.2273 84.4268 19.2273C84.1593 19.2273 83.9202 19.2853 83.7095 19.4013C83.5012 19.5173 83.3366 19.6866 83.2159 19.9091C83.0952 20.1316 83.0348 20.4015 83.0348 20.7188ZM90.9725 24V16.7273H91.8105V19.4119H91.8816C91.9431 19.3172 92.0283 19.1965 92.1373 19.0497C92.2485 18.9006 92.4071 18.768 92.6131 18.652C92.8214 18.5336 93.1032 18.4744 93.4583 18.4744C93.9176 18.4744 94.3224 18.5893 94.6728 18.8189C95.0231 19.0485 95.2966 19.3741 95.4931 19.7955C95.6896 20.2169 95.7878 20.714 95.7878 21.2869C95.7878 21.8646 95.6896 22.3653 95.4931 22.7891C95.2966 23.2105 95.0243 23.5372 94.6763 23.7692C94.3283 23.9988 93.927 24.1136 93.4725 24.1136C93.1221 24.1136 92.8416 24.0556 92.6309 23.9396C92.4202 23.8213 92.258 23.6875 92.1444 23.5384C92.0307 23.3868 91.9431 23.2614 91.8816 23.1619H91.7821V24H90.9725ZM91.7963 21.2727C91.7963 21.6847 91.8567 22.0481 91.9775 22.3629C92.0982 22.6754 92.2746 22.9205 92.5066 23.098C92.7386 23.2732 93.0227 23.3608 93.3588 23.3608C93.7092 23.3608 94.0016 23.2685 94.236 23.0838C94.4727 22.8968 94.6503 22.6458 94.7686 22.331C94.8894 22.0137 94.9498 21.661 94.9498 21.2727C94.9498 20.8892 94.8906 20.5436 94.7722 20.2358C94.6562 19.9257 94.4798 19.6806 94.2431 19.5007C94.0087 19.3184 93.714 19.2273 93.3588 19.2273C93.0179 19.2273 92.7315 19.3137 92.4995 19.4865C92.2675 19.657 92.0923 19.8961 91.9739 20.2038C91.8555 20.5092 91.7963 20.8655 91.7963 21.2727ZM99.3567 24.1136C98.8311 24.1136 98.3778 23.9976 97.9966 23.7656C97.6178 23.5312 97.3255 23.2045 97.1195 22.7855C96.9159 22.3641 96.8141 21.8741 96.8141 21.3153C96.8141 20.7566 96.9159 20.2642 97.1195 19.8381C97.3255 19.4096 97.6119 19.0758 97.9789 18.8366C98.3482 18.5952 98.7791 18.4744 99.2715 18.4744C99.5556 18.4744 99.8361 18.5218 100.113 18.6165C100.39 18.7112 100.642 18.8651 100.869 19.0781C101.097 19.2888 101.278 19.5682 101.413 19.9162C101.548 20.2642 101.615 20.6927 101.615 21.2017V21.5568H97.4107V20.8324H100.763C100.763 20.5246 100.701 20.25 100.578 20.0085C100.458 19.767 100.285 19.5765 100.06 19.4368C99.8373 19.2971 99.5745 19.2273 99.2715 19.2273C98.9377 19.2273 98.6489 19.3101 98.405 19.4759C98.1635 19.6392 97.9777 19.8523 97.8475 20.1151C97.7173 20.3778 97.6522 20.6596 97.6522 20.9602V21.4432C97.6522 21.8551 97.7232 22.2043 97.8652 22.4908C98.0096 22.7749 98.2097 22.9915 98.4654 23.1406C98.7211 23.2874 99.0182 23.3608 99.3567 23.3608C99.5769 23.3608 99.7757 23.33 99.9533 23.2685C100.133 23.2045 100.288 23.1098 100.419 22.9844C100.549 22.8565 100.649 22.6979 100.72 22.5085L101.53 22.7358C101.445 23.0104 101.302 23.2519 101.1 23.4602C100.899 23.6662 100.651 23.8272 100.355 23.9432C100.059 24.0568 99.726 24.1136 99.3567 24.1136ZM103.728 16.7273V24H102.89V16.7273H103.728ZM107.479 24.1136C106.987 24.1136 106.555 23.9964 106.183 23.7621C105.814 23.5277 105.525 23.1998 105.316 22.7784C105.11 22.357 105.007 21.8646 105.007 21.3011C105.007 20.733 105.11 20.237 105.316 19.8132C105.525 19.3894 105.814 19.0604 106.183 18.826C106.555 18.5916 106.987 18.4744 107.479 18.4744C107.971 18.4744 108.402 18.5916 108.772 18.826C109.143 19.0604 109.432 19.3894 109.638 19.8132C109.846 20.237 109.951 20.733 109.951 21.3011C109.951 21.8646 109.846 22.357 109.638 22.7784C109.432 23.1998 109.143 23.5277 108.772 23.7621C108.402 23.9964 107.971 24.1136 107.479 24.1136ZM107.479 23.3608C107.853 23.3608 108.161 23.2649 108.402 23.0732C108.644 22.8814 108.823 22.6293 108.939 22.3168C109.055 22.0043 109.113 21.6657 109.113 21.3011C109.113 20.9366 109.055 20.5968 108.939 20.282C108.823 19.9671 108.644 19.7126 108.402 19.5185C108.161 19.3243 107.853 19.2273 107.479 19.2273C107.105 19.2273 106.797 19.3243 106.556 19.5185C106.314 19.7126 106.136 19.9671 106.02 20.282C105.904 20.5968 105.846 20.9366 105.846 21.3011C105.846 21.6657 105.904 22.0043 106.02 22.3168C106.136 22.6293 106.314 22.8814 106.556 23.0732C106.797 23.2649 107.105 23.3608 107.479 23.3608ZM112.28 24L110.618 18.5455H111.499L112.678 22.7216H112.735L113.9 18.5455H114.794L115.945 22.7074H116.002L117.181 18.5455H118.061L116.4 24H115.576L114.382 19.8097H114.297L113.104 24H112.28ZM124.354 18.5455V19.2557H121.527V18.5455H124.354ZM122.351 17.2386H123.189V22.4375C123.189 22.6742 123.224 22.8518 123.292 22.9702C123.363 23.0862 123.453 23.1643 123.562 23.2045C123.673 23.2424 123.791 23.2614 123.914 23.2614C124.006 23.2614 124.082 23.2566 124.141 23.2472C124.2 23.2353 124.248 23.2259 124.283 23.2188L124.453 23.9716C124.397 23.9929 124.317 24.0142 124.216 24.0355C124.114 24.0592 123.985 24.071 123.828 24.071C123.592 24.071 123.36 24.0201 123.132 23.9183C122.908 23.8165 122.721 23.6615 122.571 23.4531C122.425 23.2448 122.351 22.982 122.351 22.6648V17.2386ZM127.772 24.1136C127.28 24.1136 126.848 23.9964 126.476 23.7621C126.107 23.5277 125.818 23.1998 125.609 22.7784C125.403 22.357 125.3 21.8646 125.3 21.3011C125.3 20.733 125.403 20.237 125.609 19.8132C125.818 19.3894 126.107 19.0604 126.476 18.826C126.848 18.5916 127.28 18.4744 127.772 18.4744C128.264 18.4744 128.695 18.5916 129.065 18.826C129.436 19.0604 129.725 19.3894 129.931 19.8132C130.139 20.237 130.244 20.733 130.244 21.3011C130.244 21.8646 130.139 22.357 129.931 22.7784C129.725 23.1998 129.436 23.5277 129.065 23.7621C128.695 23.9964 128.264 24.1136 127.772 24.1136ZM127.772 23.3608C128.146 23.3608 128.454 23.2649 128.695 23.0732C128.937 22.8814 129.116 22.6293 129.232 22.3168C129.348 22.0043 129.406 21.6657 129.406 21.3011C129.406 20.9366 129.348 20.5968 129.232 20.282C129.116 19.9671 128.937 19.7126 128.695 19.5185C128.454 19.3243 128.146 19.2273 127.772 19.2273C127.398 19.2273 127.09 19.3243 126.849 19.5185C126.607 19.7126 126.429 19.9671 126.312 20.282C126.196 20.5968 126.138 20.9366 126.138 21.3011C126.138 21.6657 126.196 22.0043 126.312 22.3168C126.429 22.6293 126.607 22.8814 126.849 23.0732C127.09 23.2649 127.398 23.3608 127.772 23.3608ZM134.449 24V16.7273H135.287V19.4119H135.358C135.42 19.3172 135.505 19.1965 135.614 19.0497C135.725 18.9006 135.884 18.768 136.09 18.652C136.298 18.5336 136.58 18.4744 136.935 18.4744C137.394 18.4744 137.799 18.5893 138.149 18.8189C138.5 19.0485 138.773 19.3741 138.97 19.7955C139.166 20.2169 139.264 20.714 139.264 21.2869C139.264 21.8646 139.166 22.3653 138.97 22.7891C138.773 23.2105 138.501 23.5372 138.153 23.7692C137.805 23.9988 137.404 24.1136 136.949 24.1136C136.599 24.1136 136.318 24.0556 136.107 23.9396C135.897 23.8213 135.735 23.6875 135.621 23.5384C135.507 23.3868 135.42 23.2614 135.358 23.1619H135.259V24H134.449ZM135.273 21.2727C135.273 21.6847 135.333 22.0481 135.454 22.3629C135.575 22.6754 135.751 22.9205 135.983 23.098C136.215 23.2732 136.499 23.3608 136.835 23.3608C137.186 23.3608 137.478 23.2685 137.713 23.0838C137.949 22.8968 138.127 22.6458 138.245 22.331C138.366 22.0137 138.426 21.661 138.426 21.2727C138.426 20.8892 138.367 20.5436 138.249 20.2358C138.133 19.9257 137.956 19.6806 137.72 19.5007C137.485 19.3184 137.191 19.2273 136.835 19.2273C136.494 19.2273 136.208 19.3137 135.976 19.4865C135.744 19.657 135.569 19.8961 135.45 20.2038C135.332 20.5092 135.273 20.8655 135.273 21.2727ZM142.833 24.1136C142.308 24.1136 141.854 23.9976 141.473 23.7656C141.094 23.5312 140.802 23.2045 140.596 22.7855C140.392 22.3641 140.291 21.8741 140.291 21.3153C140.291 20.7566 140.392 20.2642 140.596 19.8381C140.802 19.4096 141.088 19.0758 141.455 18.8366C141.825 18.5952 142.256 18.4744 142.748 18.4744C143.032 18.4744 143.313 18.5218 143.59 18.6165C143.867 18.7112 144.119 18.8651 144.346 19.0781C144.573 19.2888 144.754 19.5682 144.889 19.9162C145.024 20.2642 145.092 20.6927 145.092 21.2017V21.5568H140.887V20.8324H144.24C144.24 20.5246 144.178 20.25 144.055 20.0085C143.934 19.767 143.761 19.5765 143.536 19.4368C143.314 19.2971 143.051 19.2273 142.748 19.2273C142.414 19.2273 142.125 19.3101 141.882 19.4759C141.64 19.6392 141.454 19.8523 141.324 20.1151C141.194 20.3778 141.129 20.6596 141.129 20.9602V21.4432C141.129 21.8551 141.2 22.2043 141.342 22.4908C141.486 22.7749 141.686 22.9915 141.942 23.1406C142.198 23.2874 142.495 23.3608 142.833 23.3608C143.053 23.3608 143.252 23.33 143.43 23.2685C143.61 23.2045 143.765 23.1098 143.895 22.9844C144.025 22.8565 144.126 22.6979 144.197 22.5085L145.007 22.7358C144.921 23.0104 144.778 23.2519 144.577 23.4602C144.376 23.6662 144.127 23.8272 143.831 23.9432C143.535 24.0568 143.203 24.1136 142.833 24.1136ZM148.568 26.1591C148.164 26.1591 147.816 26.107 147.524 26.0028C147.233 25.901 146.99 25.7661 146.796 25.598C146.605 25.4323 146.452 25.2547 146.338 25.0653L147.006 24.5966C147.082 24.696 147.177 24.8097 147.294 24.9375C147.41 25.0677 147.568 25.1802 147.769 25.2749C147.973 25.3719 148.239 25.4205 148.568 25.4205C149.009 25.4205 149.372 25.3139 149.659 25.1009C149.945 24.8878 150.088 24.554 150.088 24.0994V22.9915H150.017C149.956 23.0909 149.868 23.214 149.754 23.3608C149.643 23.5052 149.482 23.6342 149.271 23.7479C149.063 23.8591 148.781 23.9148 148.426 23.9148C147.986 23.9148 147.591 23.8106 147.24 23.6023C146.892 23.3939 146.616 23.0909 146.413 22.6932C146.212 22.2955 146.111 21.8125 146.111 21.2443C146.111 20.6856 146.209 20.1991 146.406 19.7848C146.602 19.3681 146.876 19.0462 147.226 18.8189C147.576 18.5893 147.981 18.4744 148.441 18.4744C148.796 18.4744 149.077 18.5336 149.286 18.652C149.496 18.768 149.657 18.9006 149.769 19.0497C149.882 19.1965 149.97 19.3172 150.031 19.4119H150.117V18.5455H150.926V24.1562C150.926 24.625 150.82 25.0062 150.607 25.2997C150.396 25.5956 150.112 25.8123 149.754 25.9496C149.399 26.0893 149.004 26.1591 148.568 26.1591ZM148.54 23.1619C148.876 23.1619 149.16 23.085 149.392 22.9311C149.624 22.7772 149.801 22.5559 149.921 22.267C150.042 21.9782 150.102 21.6326 150.102 21.2301C150.102 20.8371 150.043 20.4903 149.925 20.1896C149.807 19.889 149.631 19.6534 149.399 19.483C149.167 19.3125 148.881 19.2273 148.54 19.2273C148.185 19.2273 147.889 19.3172 147.652 19.4972C147.418 19.6771 147.241 19.9186 147.123 20.2216C147.007 20.5246 146.949 20.8608 146.949 21.2301C146.949 21.6089 147.008 21.9439 147.127 22.2351C147.247 22.5239 147.425 22.7512 147.659 22.9169C147.896 23.0803 148.19 23.1619 148.54 23.1619ZM152.46 24V18.5455H153.298V24H152.46ZM152.887 17.6364C152.723 17.6364 152.582 17.5807 152.464 17.4695C152.348 17.3582 152.29 17.2244 152.29 17.0682C152.29 16.9119 152.348 16.7782 152.464 16.6669C152.582 16.5556 152.723 16.5 152.887 16.5C153.05 16.5 153.19 16.5556 153.306 16.6669C153.424 16.7782 153.483 16.9119 153.483 17.0682C153.483 17.2244 153.424 17.3582 153.306 17.4695C153.19 17.5807 153.05 17.6364 152.887 17.6364ZM155.672 20.7188V24H154.833V18.5455H155.643V19.3977H155.714C155.842 19.1207 156.036 18.8982 156.297 18.7301C156.557 18.5597 156.893 18.4744 157.305 18.4744C157.674 18.4744 157.998 18.5502 158.275 18.7017C158.551 18.8509 158.767 19.0781 158.921 19.3835C159.075 19.6866 159.152 20.0701 159.152 20.5341V24H158.314V20.5909C158.314 20.1624 158.202 19.8286 157.98 19.5895C157.757 19.348 157.452 19.2273 157.064 19.2273C156.796 19.2273 156.557 19.2853 156.346 19.4013C156.138 19.5173 155.973 19.6866 155.853 19.9091C155.732 20.1316 155.672 20.4015 155.672 20.7188Z" fill="#F8F8FF"/>
<path d="M94 40H78L84.5858 46.5858C85.3668 47.3668 86.6332 47.3668 87.4142 46.5858L94 40Z" fill="#183F25"/>
</g>
</g>
<defs>
<filter id="filter0_d_192_518" x="-14" y="-6" width="200" height="76" filterUnits="userSpaceOnUse" color-interpolation-filters="sRGB">
<feFlood flood-opacity="0" result="BackgroundImageFix"/>
<feColorMatrix in="SourceAlpha" type="matrix" values="0 0 0 0 0 0 0 0 0 0 0 0 0 0 0 0 0 0 127 0" result="hardAlpha"/>
<feMorphology radius="2" operator="erode" in="SourceAlpha" result="effect1_dropShadow_192_518"/>
<feOffset dy="8"/>
<feGaussianBlur stdDeviation="8"/>
<feColorMatrix type="matrix" values="0 0 0 0 0.105882 0 0 0 0 0.129412 0 0 0 0 0.172549 0 0 0 0.12 0"/>
<feBlend mode="normal" in2="BackgroundImageFix" result="effect1_dropShadow_192_518"/>
<feBlend mode="normal" in="SourceGraphic" in2="effect1_dropShadow_192_518" result="shape"/>
</filter>
<clipPath id="clip0_192_518">
<rect width="172" height="48" fill="white"/>
</clipPath>
</defs>
</svg>
